<svg version="1.2" xmlns="http://www.w3.org/2000/svg" viewBox="0 0 110 121" width="110" height="121">
	<title>modelUtility</title>
	<style>
		tspan { white-space:pre } 
		.s0 { fill: #000000 } 
		.t1 { font-size: 5px;fill: #000000;font-family: "Arbeit  Regular" } 
	</style>
	<path fill-rule="evenodd" class="s0" d="m70.9 93.4v6.1c0 4.4-3.6 8-8.1 8h-15.6c-4.5 0-8.1-3.6-8.1-8v-6.1c0-5.6-1.7-10.3-5.4-14.4-10-11.3-9.6-28.5 1.1-39.2 11.2-11.1 29.2-11.1 40.4 0 10.7 10.7 11.2 27.9 1.1 39.2-3.6 4.1-5.4 8.8-5.4 14.4zm-26.3-2.8h20.8c0.6-5.8 2.8-10.9 6.8-15.3 8-9.1 7.7-22.9-1-31.5-8.9-9-23.5-9-32.4 0-8.6 8.6-9 22.4-1 31.5 4 4.4 6.2 9.5 6.8 15.3zm-4-27.4c-1.6 0-2.8-1.2-2.8-2.8 0-9.5 7.7-17.2 17.2-17.2 1.5 0 2.8 1.2 2.8 2.8 0 1.5-1.3 2.8-2.8 2.8-6.4 0-11.6 5.2-11.6 11.6 0 1.6-1.3 2.8-2.8 2.8zm24.7 33h-20.6v3.3c0 1.3 1.1 2.4 2.5 2.4h15.6c1.4 0 2.5-1.1 2.5-2.4zm-43.9-69.8c1.1-1.1 2.9-1.1 4 0l6.5 6.5c1.1 1.1 1.1 2.9 0 4-1.1 1.1-2.9 1.1-4 0l-6.5-6.5c-1.1-1.1-1.1-2.9 0-4zm-11.1 36.4c-1.6 0-2.8-1.2-2.8-2.8 0-1.5 1.2-2.8 2.8-2.8h9.2c1.5 0 2.8 1.3 2.8 2.8 0 1.6-1.3 2.8-2.8 2.8zm11.1 30.8c-1.1-1.1-1.1-2.9 0-4l6.5-6.5c1.1-1.1 2.9-1.1 4 0 1.1 1.1 1.1 2.9 0 4l-6.5 6.5c-1.1 1.1-2.9 1.1-4 0zm67.2 0c-1.1 1.1-2.9 1.1-4 0l-6.5-6.5c-1.1-1.1-1.1-2.9 0-4 1.1-1.1 2.9-1.1 4 0l6.5 6.5c1.1 1.1 1.1 2.9 0 4zm11.1-36.4c1.6 0 2.8 1.3 2.8 2.8 0 1.6-1.2 2.8-2.8 2.8h-9.2c-1.5 0-2.8-1.2-2.8-2.8 0-1.5 1.3-2.8 2.8-2.8zm-11.1-30.8c1.1 1.1 1.1 2.9 0 4l-6.5 6.5c-1.1 1.1-2.9 1.1-4 0-1.1-1.1-1.1-2.9 0-4l6.5-6.5c1.1-1.1 2.9-1.1 4 0zm-36.4-11.1c0-1.5 1.3-2.8 2.8-2.8 1.5 0 2.8 1.3 2.8 2.8v9.2c0 1.6-1.3 2.8-2.8 2.8-1.5 0-2.8-1.2-2.8-2.8z"/>
	<text id="Created by Asa Kharisma Dini" style="transform: matrix(1,0,0,1,5,127.5)" >
		<tspan x="0" y="0" class="t1">Created by Asa Kharisma Dini
</tspan>
	</text>
	<text id="from Noun Project" style="transform: matrix(1,0,0,1,5,132.5)" >
		<tspan x="0" y="0" class="t1">from Noun Project
</tspan>
	</text>
</svg>